<svg width="466" height="112" viewBox="0 0 466 112" fill="none" xmlns="http://www.w3.org/2000/svg">
<rect x="0.5" y="0.5" width="465" height="111" rx="8.5" fill="#5F0972"/>
<rect x="0.5" y="0.5" width="465" height="111" rx="8.5" fill="black" fill-opacity="0.2"/>
<rect x="0.5" y="0.5" width="465" height="111" rx="8.5" stroke="#EF23F3"/>
<path d="M61.0535 46.175C60.6102 46.175 60.2368 46.0233 59.9335 45.72C59.6302 45.4167 59.4785 45.0433 59.4785 44.6V23.005C59.4785 22.5617 59.6302 22.1883 59.9335 21.885C60.2368 21.5583 60.6102 21.395 61.0535 21.395C61.4968 21.395 61.8702 21.5583 62.1735 21.885C62.5002 22.1883 62.6635 22.5617 62.6635 23.005V32.315H75.9285V23.005C75.9285 22.5617 76.0802 22.1883 76.3835 21.885C76.6868 21.5583 77.0602 21.395 77.5035 21.395C77.9468 21.395 78.3202 21.5583 78.6235 21.885C78.9502 22.1883 79.1135 22.5617 79.1135 23.005V44.6C79.1135 45.0433 78.9502 45.4167 78.6235 45.72C78.3202 46.0233 77.9468 46.175 77.5035 46.175C77.0602 46.175 76.6868 46.0233 76.3835 45.72C76.0802 45.4167 75.9285 45.0433 75.9285 44.6V35.29H62.6635V44.6C62.6635 45.0433 62.5002 45.4167 62.1735 45.72C61.8702 46.0233 61.4968 46.175 61.0535 46.175ZM86.4326 24.51C85.9426 24.51 85.5226 24.335 85.1726 23.985C84.8226 23.635 84.6476 23.215 84.6476 22.725V22.585C84.6476 22.095 84.8226 21.675 85.1726 21.325C85.5226 20.975 85.9426 20.8 86.4326 20.8H86.6426C87.1326 20.8 87.5526 20.975 87.9026 21.325C88.2526 21.675 88.4276 22.095 88.4276 22.585V22.725C88.4276 23.215 88.2526 23.635 87.9026 23.985C87.5526 24.335 87.1326 24.51 86.6426 24.51H86.4326ZM86.5026 46.175C86.0593 46.175 85.6859 46.0233 85.3826 45.72C85.0793 45.4167 84.9276 45.0433 84.9276 44.6V29.585C84.9276 29.1417 85.0793 28.7683 85.3826 28.465C85.6859 28.1383 86.0593 27.975 86.5026 27.975C86.9693 27.975 87.3543 28.1267 87.6576 28.43C87.9609 28.7333 88.1126 29.1183 88.1126 29.585V44.6C88.1126 45.0433 87.9493 45.4167 87.6226 45.72C87.3193 46.0233 86.9459 46.175 86.5026 46.175ZM94.0984 51.285C93.8184 51.285 93.5734 51.18 93.3634 50.97C93.1768 50.76 93.0834 50.515 93.0834 50.235C93.0834 49.8617 93.2584 49.57 93.6084 49.36C94.1918 49.01 94.6351 48.6017 94.9384 48.135C95.2418 47.6683 95.3934 46.9917 95.3934 46.105H95.2534C94.7168 46.105 94.2501 45.9183 93.8534 45.545C93.4801 45.1483 93.2934 44.6817 93.2934 44.145V43.935C93.2934 43.3983 93.4801 42.9433 93.8534 42.57C94.2501 42.1733 94.7168 41.975 95.2534 41.975H95.6034C96.1401 41.975 96.5951 42.1733 96.9684 42.57C97.3651 42.9433 97.5634 43.3983 97.5634 43.935V46C97.5634 48.24 96.6068 49.9433 94.6934 51.11C94.5068 51.2267 94.3084 51.285 94.0984 51.285ZM114.032 46.175C113.589 46.175 113.215 46.0233 112.912 45.72C112.609 45.4167 112.457 45.0433 112.457 44.6V23.005C112.457 22.5617 112.609 22.1883 112.912 21.885C113.215 21.5583 113.589 21.395 114.032 21.395C114.475 21.395 114.849 21.5583 115.152 21.885C115.479 22.1883 115.642 22.5617 115.642 23.005V44.6C115.642 45.0433 115.479 45.4167 115.152 45.72C114.849 46.0233 114.475 46.175 114.032 46.175ZM135.449 46.35C134.423 46.35 133.466 46.14 132.579 45.72C131.716 45.3 131.028 44.6933 130.514 43.9C130.001 43.0833 129.744 42.15 129.744 41.1C129.744 39.3733 130.421 37.9967 131.774 36.97C133.151 35.9433 135.158 35.43 137.794 35.43H142.029V35.15C142.029 33.61 141.644 32.5017 140.874 31.825C140.128 31.1483 138.949 30.81 137.339 30.81C136.453 30.81 135.659 30.88 134.959 31.02C134.283 31.16 133.524 31.37 132.684 31.65C132.498 31.6967 132.346 31.72 132.229 31.72C131.879 31.72 131.576 31.5917 131.319 31.335C131.063 31.0783 130.934 30.7633 130.934 30.39C130.934 29.76 131.238 29.3167 131.844 29.06C133.828 28.22 135.846 27.8 137.899 27.8C139.509 27.8 140.863 28.1267 141.959 28.78C143.079 29.4333 143.896 30.285 144.409 31.335C144.946 32.3617 145.214 33.4817 145.214 34.695V44.6C145.214 45.0433 145.051 45.4167 144.724 45.72C144.421 46.0233 144.048 46.175 143.604 46.175C143.161 46.175 142.788 46.0233 142.484 45.72C142.181 45.4167 142.029 45.0433 142.029 44.6V43.69C140.303 45.4633 138.109 46.35 135.449 46.35ZM136.639 43.55C137.666 43.55 138.658 43.305 139.614 42.815C140.571 42.3017 141.376 41.6717 142.029 40.925V37.985H138.214C134.691 37.985 132.929 38.9067 132.929 40.75C132.929 41.59 133.209 42.2667 133.769 42.78C134.353 43.2933 135.309 43.55 136.639 43.55ZM152.128 46.175C151.684 46.175 151.311 46.0233 151.008 45.72C150.704 45.4167 150.553 45.0433 150.553 44.6V29.585C150.553 29.1417 150.704 28.7683 151.008 28.465C151.311 28.1383 151.684 27.975 152.128 27.975C152.571 27.975 152.944 28.1383 153.248 28.465C153.574 28.7683 153.738 29.1417 153.738 29.585V31.02C154.391 30.0867 155.173 29.3167 156.083 28.71C157.016 28.1033 158.218 27.8 159.688 27.8C160.994 27.8 162.114 28.15 163.048 28.85C163.981 29.55 164.646 30.4017 165.043 31.405C166.489 29.0017 168.636 27.8 171.483 27.8C172.789 27.8 173.874 28.1267 174.738 28.78C175.624 29.4333 176.278 30.2733 176.698 31.3C177.118 32.3267 177.328 33.4 177.328 34.52V44.6C177.328 45.0433 177.164 45.4167 176.838 45.72C176.534 46.0233 176.161 46.175 175.718 46.175C175.274 46.175 174.901 46.0233 174.598 45.72C174.294 45.4167 174.143 45.0433 174.143 44.6V35.15C174.143 33.6333 173.874 32.525 173.338 31.825C172.801 31.1017 171.879 30.74 170.573 30.74C169.383 30.74 168.391 31.055 167.598 31.685C166.828 32.2917 166.139 33.0967 165.533 34.1V44.6C165.533 45.0433 165.369 45.4167 165.043 45.72C164.739 46.0233 164.366 46.175 163.923 46.175C163.479 46.175 163.106 46.0233 162.803 45.72C162.499 45.4167 162.348 45.0433 162.348 44.6V35.15C162.348 33.6333 162.079 32.525 161.543 31.825C161.006 31.1017 160.084 30.74 158.778 30.74C157.588 30.74 156.596 31.055 155.803 31.685C155.033 32.2917 154.344 33.0967 153.738 34.1V44.6C153.738 45.0433 153.574 45.4167 153.248 45.72C152.944 46.0233 152.571 46.175 152.128 46.175ZM34.0671 88.175C33.6005 88.175 33.1805 88.0467 32.8071 87.79C32.4571 87.51 32.1888 87.1133 32.0021 86.6L25.1421 65.53C25.0721 65.2733 25.0371 65.075 25.0371 64.935C25.0138 64.4917 25.1421 64.13 25.4221 63.85C25.7255 63.5467 26.1105 63.395 26.5771 63.395C26.9505 63.395 27.2771 63.5117 27.5571 63.745C27.8371 63.9783 28.0355 64.2817 28.1521 64.655L34.0321 83.975L39.9471 64.725C40.0638 64.3283 40.2855 64.0133 40.6121 63.78C40.9621 63.5233 41.3471 63.395 41.7671 63.395C42.1871 63.395 42.5605 63.5233 42.8871 63.78C43.2371 64.0133 43.4705 64.3283 43.5871 64.725L49.5021 83.975L55.3821 64.655C55.4988 64.2817 55.6971 63.9783 55.9771 63.745C56.2571 63.5117 56.5838 63.395 56.9571 63.395C57.4238 63.395 57.7971 63.5467 58.0771 63.85C58.3805 64.13 58.5205 64.4917 58.4971 64.935C58.4971 65.075 58.4621 65.2733 58.3921 65.53L51.5321 86.6C51.3455 87.1133 51.0655 87.51 50.6921 87.79C50.3421 88.0467 49.9338 88.175 49.4671 88.175C49.0005 88.175 48.5688 88.035 48.1721 87.755C47.7988 87.4517 47.5421 87.0667 47.4021 86.6L41.7671 68.75L36.1321 86.6C35.9921 87.0667 35.7238 87.4517 35.3271 87.755C34.9538 88.035 34.5338 88.175 34.0671 88.175ZM63.3613 66.51C62.8713 66.51 62.4513 66.335 62.1013 65.985C61.7513 65.635 61.5763 65.215 61.5763 64.725V64.585C61.5763 64.095 61.7513 63.675 62.1013 63.325C62.4513 62.975 62.8713 62.8 63.3613 62.8H63.5713C64.0613 62.8 64.4813 62.975 64.8313 63.325C65.1813 63.675 65.3563 64.095 65.3563 64.585V64.725C65.3563 65.215 65.1813 65.635 64.8313 65.985C64.4813 66.335 64.0613 66.51 63.5713 66.51H63.3613ZM63.4313 88.175C62.988 88.175 62.6146 88.0233 62.3113 87.72C62.008 87.4167 61.8563 87.0433 61.8563 86.6V71.585C61.8563 71.1417 62.008 70.7683 62.3113 70.465C62.6146 70.1383 62.988 69.975 63.4313 69.975C63.898 69.975 64.283 70.1267 64.5863 70.43C64.8896 70.7333 65.0413 71.1183 65.0413 71.585V86.6C65.0413 87.0433 64.878 87.4167 64.5513 87.72C64.248 88.0233 63.8746 88.175 63.4313 88.175ZM72.1471 88.175C71.7038 88.175 71.3305 88.0233 71.0271 87.72C70.7238 87.4167 70.5721 87.0433 70.5721 86.6V63.885C70.5721 63.4417 70.7238 63.0683 71.0271 62.765C71.3305 62.4383 71.7038 62.275 72.1471 62.275C72.6138 62.275 72.9988 62.4267 73.3021 62.73C73.6055 63.0333 73.7571 63.4183 73.7571 63.885V86.6C73.7571 87.0433 73.5938 87.4167 73.2671 87.72C72.9638 88.0233 72.5905 88.175 72.1471 88.175ZM80.8629 88.175C80.4196 88.175 80.0463 88.0233 79.7429 87.72C79.4396 87.4167 79.2879 87.0433 79.2879 86.6V63.885C79.2879 63.4417 79.4396 63.0683 79.7429 62.765C80.0463 62.4383 80.4196 62.275 80.8629 62.275C81.3296 62.275 81.7146 62.4267 82.0179 62.73C82.3213 63.0333 82.4729 63.4183 82.4729 63.885V86.6C82.4729 87.0433 82.3096 87.4167 81.9829 87.72C81.6796 88.0233 81.3063 88.175 80.8629 88.175ZM91.9938 96.225C91.5738 96.225 91.2121 96.0733 90.9088 95.77C90.6288 95.4667 90.4888 95.105 90.4888 94.685C90.4888 94.4983 90.5238 94.3117 90.5938 94.125L92.8688 88.28L86.2888 72.25C86.1954 72.0167 86.1488 71.795 86.1488 71.585C86.1488 71.1417 86.3004 70.7683 86.6038 70.465C86.9071 70.1383 87.2804 69.975 87.7238 69.975C88.0504 69.975 88.3421 70.0683 88.5988 70.255C88.8788 70.4417 89.0771 70.675 89.1938 70.955L94.5838 84.325L100.079 71.025C100.382 70.325 100.872 69.975 101.549 69.975C101.992 69.975 102.365 70.1383 102.669 70.465C102.972 70.7683 103.124 71.1417 103.124 71.585C103.124 71.795 103.089 71.9933 103.019 72.18L93.4638 95.14C93.1371 95.8633 92.6471 96.225 91.9938 96.225ZM118.099 88C117.656 88 117.283 87.8483 116.979 87.545C116.676 87.2417 116.524 86.8683 116.524 86.425V65.18C116.524 64.7367 116.676 64.3633 116.979 64.06C117.283 63.7333 117.656 63.57 118.099 63.57H126.359C128.856 63.57 130.781 64.1417 132.134 65.285C133.511 66.4283 134.199 67.9683 134.199 69.905C134.199 71.2583 133.873 72.39 133.219 73.3C132.589 74.1867 131.773 74.8517 130.769 75.295C132.169 75.7383 133.313 76.45 134.199 77.43C135.109 78.41 135.564 79.6467 135.564 81.14C135.564 83.2867 134.841 84.9667 133.394 86.18C131.948 87.3933 129.673 88 126.569 88H118.099ZM125.519 74.14C127.596 74.14 129.054 73.79 129.894 73.09C130.734 72.39 131.154 71.41 131.154 70.15C131.154 69.0533 130.699 68.1783 129.789 67.525C128.903 66.8717 127.678 66.545 126.114 66.545H119.709V74.14H125.519ZM126.254 85.025C128.518 85.025 130.116 84.675 131.049 83.975C132.006 83.275 132.484 82.2833 132.484 81C132.484 78.34 130.419 77.01 126.289 77.01H119.709V85.025H126.254ZM141.498 88.175C141.054 88.175 140.681 88.0233 140.378 87.72C140.074 87.4167 139.923 87.0433 139.923 86.6V71.585C139.923 71.1417 140.074 70.7683 140.378 70.465C140.681 70.1383 141.054 69.975 141.498 69.975C141.941 69.975 142.314 70.1383 142.618 70.465C142.944 70.7683 143.108 71.1417 143.108 71.585V73.09C144.741 70.8967 146.573 69.8 148.603 69.8H148.778C149.221 69.8 149.583 69.9517 149.863 70.255C150.166 70.5583 150.318 70.9317 150.318 71.375C150.318 71.8183 150.166 72.18 149.863 72.46C149.559 72.74 149.174 72.88 148.708 72.88H148.533C147.413 72.88 146.386 73.16 145.453 73.72C144.519 74.2567 143.738 75.0033 143.108 75.96V86.6C143.108 87.0433 142.944 87.4167 142.618 87.72C142.314 88.0233 141.941 88.175 141.498 88.175ZM157.871 88.35C156.844 88.35 155.888 88.14 155.001 87.72C154.138 87.3 153.449 86.6933 152.936 85.9C152.423 85.0833 152.166 84.15 152.166 83.1C152.166 81.3733 152.843 79.9967 154.196 78.97C155.573 77.9433 157.579 77.43 160.216 77.43H164.451V77.15C164.451 75.61 164.066 74.5017 163.296 73.825C162.549 73.1483 161.371 72.81 159.761 72.81C158.874 72.81 158.081 72.88 157.381 73.02C156.704 73.16 155.946 73.37 155.106 73.65C154.919 73.6967 154.768 73.72 154.651 73.72C154.301 73.72 153.998 73.5917 153.741 73.335C153.484 73.0783 153.356 72.7633 153.356 72.39C153.356 71.76 153.659 71.3167 154.266 71.06C156.249 70.22 158.268 69.8 160.321 69.8C161.931 69.8 163.284 70.1267 164.381 70.78C165.501 71.4333 166.318 72.285 166.831 73.335C167.368 74.3617 167.636 75.4817 167.636 76.695V86.6C167.636 87.0433 167.473 87.4167 167.146 87.72C166.843 88.0233 166.469 88.175 166.026 88.175C165.583 88.175 165.209 88.0233 164.906 87.72C164.603 87.4167 164.451 87.0433 164.451 86.6V85.69C162.724 87.4633 160.531 88.35 157.871 88.35ZM159.061 85.55C160.088 85.55 161.079 85.305 162.036 84.815C162.993 84.3017 163.798 83.6717 164.451 82.925V79.985H160.636C157.113 79.985 155.351 80.9067 155.351 82.75C155.351 83.59 155.631 84.2667 156.191 84.78C156.774 85.2933 157.731 85.55 159.061 85.55ZM181.304 96.4C179.951 96.4 178.586 96.225 177.209 95.875C175.833 95.525 174.701 95.0933 173.814 94.58C173.394 94.3233 173.184 93.915 173.184 93.355C173.184 92.9817 173.313 92.6433 173.569 92.34C173.849 92.06 174.188 91.92 174.584 91.92C174.771 91.92 174.981 91.9667 175.214 92.06C176.988 92.9467 178.913 93.39 180.989 93.39C184.559 93.39 186.344 91.4883 186.344 87.685V85.34C184.688 87.1133 182.693 88 180.359 88C178.983 88 177.641 87.6617 176.334 86.985C175.051 86.285 173.989 85.2583 173.149 83.905C172.309 82.5283 171.889 80.86 171.889 78.9C171.889 76.94 172.309 75.2833 173.149 73.93C173.989 72.5533 175.051 71.5267 176.334 70.85C177.641 70.15 178.983 69.8 180.359 69.8C182.693 69.8 184.688 70.6867 186.344 72.46V71.585C186.344 71.1417 186.496 70.7683 186.799 70.465C187.103 70.1383 187.476 69.975 187.919 69.975C188.363 69.975 188.736 70.1383 189.039 70.465C189.366 70.7683 189.529 71.1417 189.529 71.585V87.23C189.529 90.17 188.818 92.4333 187.394 94.02C185.971 95.6067 183.941 96.4 181.304 96.4ZM181.024 85.095C182.121 85.095 183.089 84.8617 183.929 84.395C184.769 83.9283 185.574 83.2983 186.344 82.505V75.295C185.574 74.5017 184.769 73.8717 183.929 73.405C183.089 72.9383 182.121 72.705 181.024 72.705C179.274 72.705 177.839 73.2417 176.719 74.315C175.623 75.365 175.074 76.8933 175.074 78.9C175.074 80.9067 175.623 82.4467 176.719 83.52C177.839 84.57 179.274 85.095 181.024 85.095ZM199.605 88.35C198.578 88.35 197.621 88.14 196.735 87.72C195.871 87.3 195.183 86.6933 194.67 85.9C194.156 85.0833 193.9 84.15 193.9 83.1C193.9 81.3733 194.576 79.9967 195.93 78.97C197.306 77.9433 199.313 77.43 201.95 77.43H206.185V77.15C206.185 75.61 205.8 74.5017 205.03 73.825C204.283 73.1483 203.105 72.81 201.495 72.81C200.608 72.81 199.815 72.88 199.115 73.02C198.438 73.16 197.68 73.37 196.84 73.65C196.653 73.6967 196.501 73.72 196.385 73.72C196.035 73.72 195.731 73.5917 195.475 73.335C195.218 73.0783 195.09 72.7633 195.09 72.39C195.09 71.76 195.393 71.3167 196 71.06C197.983 70.22 200.001 69.8 202.055 69.8C203.665 69.8 205.018 70.1267 206.115 70.78C207.235 71.4333 208.051 72.285 208.565 73.335C209.101 74.3617 209.37 75.4817 209.37 76.695V86.6C209.37 87.0433 209.206 87.4167 208.88 87.72C208.576 88.0233 208.203 88.175 207.76 88.175C207.316 88.175 206.943 88.0233 206.64 87.72C206.336 87.4167 206.185 87.0433 206.185 86.6V85.69C204.458 87.4633 202.265 88.35 199.605 88.35ZM200.795 85.55C201.821 85.55 202.813 85.305 203.77 84.815C204.726 84.3017 205.531 83.6717 206.185 82.925V79.985H202.37C198.846 79.985 197.085 80.9067 197.085 82.75C197.085 83.59 197.365 84.2667 197.925 84.78C198.508 85.2933 199.465 85.55 200.795 85.55Z" fill="white"/>
<rect x="359" y="25" width="68" height="61" rx="7" fill="#FFFBFB"/>
<path d="M366.125 68V45.25H372.016C373.068 45.25 374.052 45.3802 374.969 45.6406C375.885 45.8906 376.719 46.25 377.469 46.7188C378.125 47.1042 378.708 47.5781 379.219 48.1406C379.74 48.6927 380.193 49.2969 380.578 49.9531C381.026 50.7552 381.37 51.6406 381.609 52.6094C381.859 53.5781 381.984 54.6094 381.984 55.7031V57.5781C381.984 58.6302 381.87 59.625 381.641 60.5625C381.411 61.5 381.089 62.3594 380.672 63.1406C380.276 63.8385 379.812 64.4844 379.281 65.0781C378.75 65.6615 378.167 66.151 377.531 66.5469C376.792 67.0156 375.974 67.375 375.078 67.625C374.193 67.875 373.245 68 372.234 68H366.125ZM370.547 48.8125V64.4688H372.234C372.776 64.4688 373.281 64.401 373.75 64.2656C374.219 64.1302 374.646 63.9323 375.031 63.6719C375.427 63.401 375.781 63.0573 376.094 62.6406C376.417 62.2135 376.693 61.7188 376.922 61.1562C377.109 60.6667 377.25 60.125 377.344 59.5312C377.448 58.9271 377.5 58.276 377.5 57.5781V55.6719C377.5 55.0156 377.448 54.3958 377.344 53.8125C377.25 53.2188 377.109 52.6771 376.922 52.1875C376.693 51.6042 376.391 51.0833 376.016 50.625C375.651 50.1667 375.224 49.7917 374.734 49.5C374.359 49.2812 373.943 49.1146 373.484 49C373.036 48.875 372.547 48.8125 372.016 48.8125H370.547ZM399.438 58.0312H390.094V64.4531H401.016V68H385.688V45.25H400.969V48.8281H390.094V54.5625H399.438V58.0312ZM409.969 68L403.094 45.25H407.938L411.797 60.1094L412.188 61.6406L412.609 60.0938L416.484 45.25H421.328L414.438 68H409.969Z" fill="#8B2AD1"/>
</svg>
